<svg width="308" height="307" viewBox="0 0 308 307" fill="none" xmlns="http://www.w3.org/2000/svg">
<path d="M71.0657 70.8353H94.7662V47.2118H71.0657H47.3652V70.8353V94.4588H71.0657V70.8353Z" fill="#111111"/>
<path d="M236.899 94.4588H260.599V70.8353V47.2118H236.899H213.233V70.8353H236.899V94.4588Z" fill="#111111"/>
<path d="M236.899 236.129H213.233V259.753H236.899H260.599V236.129V212.541H236.899V236.129Z" fill="#111111"/>
<path d="M71.0657 212.541H47.3652V236.129V259.753H71.0657H94.7662V236.129H71.0657V212.541Z" fill="#111111"/>
<path d="M165.832 47.2118H189.533V23.6235H165.832V0H142.132V23.6235H118.467V47.2118H142.132H165.832Z" fill="#111111"/>
<path d="M236.899 118.082V188.918H213.234V212.541H189.533V236.129H118.467V212.541H94.7669V188.918H71.0664V118.082H94.7669V94.4588H118.467V70.8353H189.533V94.4588H213.234V118.082H236.899Z" fill="#111111"/>
<path d="M142.132 259.753H118.467V283.376H142.132V307H165.832V283.376H189.533V259.753H165.832H142.132Z" fill="#111111"/>
<path d="M47.3656 188.918V165.294V141.671V118.082H23.7005V141.671H0V165.294H23.7005V188.918H47.3656Z" fill="#111111"/>
<path d="M284.299 118.082H260.599V141.671V165.294V188.918H284.299V165.294H308V141.671H284.299V118.082Z" fill="#111111"/>
</svg>
