<svg width="1000" height="1000" viewBox="0 0 1000 1000" fill="none" xmlns="http://www.w3.org/2000/svg">
<defs>
<clipPath id="rounded"><rect width="1000" height="1000" rx="220" ry="220"/></clipPath>
</defs>
<g clip-path="url(#rounded)">
<rect width="1000" height="1000" rx="220" ry="220" fill="#CA2323"/>
<path d="M498.475 747.17C481.384 745.367 471.291 738.517 453.701 716.595C436.474 695.252 429.692 688.039 398.981 659.199C352.256 615.219 335.097 590.268 321.182 545.925C310.578 512.186 304.386 494.948 299.77 485.943L298.398 483.278L298.33 504.327C298.262 526.101 298.262 526.101 293.215 567.916C292.353 575.128 291.99 583.487 291.99 597.118C291.99 615.219 292.138 616.806 294.077 626.321C296.674 639.08 296.958 641.824 295.948 641.824C295.518 641.824 295.155 642.471 295.155 643.265C295.155 645.351 293.283 645 291.548 642.539C288.804 638.717 281.602 622.851 278.574 614.062C272.802 597.334 270.715 585.369 270.137 565.613C269.343 539.007 272.881 515.294 284.415 470.225C301.426 403.461 303.014 396.611 305.611 376.208C307.199 363.665 307.698 345.781 306.768 336.334C304.817 317.088 300.644 311.168 272.087 287.59C241.16 261.926 224.648 242.17 220.463 225.805C216.573 210.449 227.812 195.593 247.5 190.33C255.575 188.164 274.389 187.665 284.483 189.389C292.705 190.761 306.405 194.504 313.754 197.396C328.315 203.168 346.563 212.604 358.312 220.463C362.134 222.992 365.31 225.079 365.446 225.079C365.593 225.079 363.79 222.051 361.476 218.377C352.109 203.384 348.854 195.162 348.854 186.146C348.854 180.736 349.069 179.579 350.941 176.2C353.606 171.436 356.566 168.771 362.837 165.675C370.334 161.853 375.017 160.912 386.415 160.912C394.853 160.912 397.518 161.196 403.29 162.715C415.686 166.106 426.505 171.584 439.048 180.952C445.104 185.499 455.924 195.593 458.589 199.267L460.108 201.286L465.371 199.483C468.251 198.473 473.593 197.317 477.12 196.886C481.225 196.375 484.401 195.513 485.626 194.719C490.389 191.408 513.955 194.651 532.35 201.059C546.549 206.038 562.631 215.337 573.37 224.852L575.82 227.018L585.415 222.471C601.28 214.895 621.966 206.469 636.823 201.558C643.242 199.471 643.956 199.392 642.301 201.274C641.575 202.068 641.223 202.715 641.507 202.715C641.722 202.715 645.692 201.558 650.307 200.186C662.204 196.579 673.953 193.699 685.566 191.533C697.962 189.23 718.727 188.289 726.666 189.661C739.719 191.964 744.687 197.453 740.944 205.448C740.218 206.968 736.623 211.357 732.801 215.326C719.748 229.026 710.448 239.482 710.448 240.491C710.448 240.707 711.174 240.922 711.968 240.922C713.488 240.922 713.488 240.99 712.183 242.941C709.518 247.046 693.369 267.596 687.313 274.446C676.425 286.921 665.901 296.289 650.614 307.256C634.963 318.358 614.345 337.751 603.821 351.168C580.821 380.291 567.7 410.583 561.644 448.722C559.841 459.973 559.988 461.696 563.663 467.616C568.426 475.476 572.679 482.824 576.784 490.616L580.458 497.681L580.969 489.538C583.566 447.067 598.06 405.468 621.195 374.178C636.12 353.991 657.894 332.58 682.482 314.049C690.919 307.63 714.565 291.48 722.787 286.502C725.316 284.982 731.44 284.267 731.293 285.492C731.293 285.776 728.333 288.452 724.727 291.401C709.586 304.023 697.259 321.613 691.418 338.987C687.528 350.669 686.44 358.675 686.87 373.6C687.449 392.494 689.751 403.733 701.727 445.694C712.977 485.138 716.289 498.906 719.396 519.24C725.815 560.623 721.778 593.138 706.49 623.928C701.591 633.738 692.507 648.005 685.793 656.159L681.971 660.775L684.5 660.265L687.029 659.834L685.51 661.353C684.432 662.363 680.61 663.735 673.25 665.606C654.435 670.438 638.207 677.14 622.273 686.734C612.757 692.507 605.76 697.474 589.327 710.312C566.543 728.118 558.468 733.38 554 733.38C551.256 733.38 551.119 733.232 551.119 731.146C551.119 729.49 552.129 727.834 555.089 724.511C570.161 707.636 581.842 683.559 586.741 659.04C592.151 632.287 590.348 598.479 581.763 565.738C574.981 539.643 562.37 511.302 546.867 487.145C526.68 455.64 509.736 438.05 489.765 427.662L483.709 424.566L494.165 435.306C540.811 483.255 564.683 523.414 574.119 570.127C577.657 587.796 578.156 593.773 578.156 621.241C578.156 641.858 577.941 648.062 576.863 655.127C574.913 667.886 572.973 676.392 569.514 686.848C561.871 710.131 549.974 728.015 533.541 740.853C528.71 744.607 526.839 745.617 523.595 746.263C517.823 747.272 504.78 747.783 498.509 747.125L498.475 747.17ZM484.707 298.636C503.091 276.578 529.765 253.579 552.049 240.593C553.921 239.516 555.361 238.507 555.225 238.291C554.647 237.713 536.41 242.975 528.336 246.003C513.921 251.413 497.84 260.78 477.574 275.705C460.131 288.543 451.115 294.883 447.792 296.833C445.49 298.126 444.549 299.067 444.98 299.646C445.343 300.077 449.595 305.418 454.427 311.542C459.258 317.598 463.579 323.155 464.021 323.87C464.747 324.947 465.756 323.87 471.302 316.011C474.908 311.032 480.896 303.173 484.707 298.636Z" fill="#FFF4FA"/>
<path d="M508.716 889.635C506.765 887.548 506.481 880.981 508.205 878.532C510.587 875.141 519.455 875.787 520.828 879.473C522.2 883.011 521.69 887.616 519.75 889.499C517.301 892.028 511.029 892.096 508.716 889.646V889.635Z" fill="#F9FBF5"/>
<path d="M522.268 849.84C522.268 845.655 522.415 845.156 523.708 845.156C525.001 845.156 525.148 845.667 525.148 849.84C525.148 854.025 525.001 854.524 523.708 854.524C522.415 854.524 522.268 854.014 522.268 849.84Z" fill="#F9FBF5"/>
<path d="M489.175 820.206C486.941 817.393 487.088 811.984 489.391 809.319C490.978 807.515 491.625 807.3 495.594 807.3C499.416 807.3 500.21 807.515 501.367 809.103C503.385 811.632 503.317 817.609 501.299 820.206C500.006 821.862 499.348 822.077 495.243 822.077C491.137 822.077 490.479 821.862 489.187 820.206H489.175Z" fill="#F9FBF5"/>
<g filter="url(#filter0_i_45_195)">
<path d="M534.527 763.172C534.527 762.231 532.077 760.723 526.021 757.763C517.152 753.51 510.733 748.679 510.733 746.297C510.733 745.14 511.244 744.925 513.829 744.925C519.387 744.925 525.363 743.484 528.028 741.386C529.401 740.309 532.928 738.506 535.82 737.417C540.719 735.546 545.119 733.312 554.351 727.97L557.957 725.951L555.507 728.548C551.107 733.164 556.301 730.783 567.336 723.071C571.305 720.326 580.242 713.624 587.16 708.146C603.593 695.308 610.59 690.341 620.105 684.568C651.395 665.754 685.577 656.953 727.538 656.953C754.79 656.953 777.722 660.56 804.906 668.918C819.037 673.318 841.027 682.323 840.085 683.332C839.87 683.548 836.264 682.901 832.011 681.892C819.105 678.716 803.681 675.836 791.558 674.18C776.565 672.093 746.636 671.946 733.231 673.749C714.995 676.278 701.295 681.177 688.741 689.615C686.212 691.271 683.694 693.006 683.116 693.369C682.469 693.8 679.725 695.898 677.06 698.053C674.315 700.219 670.935 702.952 669.484 704.041C668.043 705.197 662.35 710.097 656.941 714.996C645.191 725.668 636.686 733.164 633.941 735.183C632.864 735.977 629.394 738.574 626.297 740.955C623.201 743.337 620.026 745.639 619.232 746.07C618.438 746.501 615.773 748.021 613.323 749.461C592.989 761.142 571.861 765.032 547.716 761.721C540.503 760.711 538.7 760.711 537.838 761.437C537.192 762.016 536.681 762.877 536.681 763.388C536.681 763.966 536.171 764.397 535.604 764.397C535.026 764.397 534.527 763.819 534.527 763.172Z" fill="#F9FBF5"/>
</g>
<g filter="url(#filter1_i_45_195)">
<path d="M467.468 759.714C467.468 758.705 466.175 758.637 457.227 759.068C427.231 760.44 397.381 752.501 369.414 735.558C362.927 731.668 350.021 722.799 335.38 712.128C328.678 707.228 316.849 693.165 309.069 680.69C302.367 670.019 293.566 650.115 292.988 644.286C292.704 641.621 292.988 638.876 293.566 639.239C293.85 639.387 293.351 635.928 292.489 631.527C291.548 627.059 290.47 619.699 290.039 615.163C288.814 602.903 289.608 577.737 291.911 558.56C292.92 549.839 294.292 538.305 294.871 532.963C296.243 521.498 296.606 498.215 295.664 485.014C295.301 479.899 295.018 475.351 294.939 474.989C294.871 474.626 295.301 474.195 295.948 474.047C296.742 473.832 298.182 476.066 301.142 482.269C308.207 497.194 311.666 506.789 323.348 543.771C327.963 558.481 331.933 568.427 337.546 579.529C350.305 604.547 366.817 624.734 401.135 657.033C431.846 685.873 438.628 693.086 455.855 714.43C466.379 727.619 475.033 735.841 481.883 739.448C487.576 742.476 496.376 744.925 501.491 744.925C504.519 744.925 504.95 745.141 504.95 746.445C504.95 749.19 486.271 756.754 474.602 758.773C471.857 759.283 469.623 759.93 469.623 760.213C469.623 760.497 469.113 760.791 468.546 760.791C467.967 760.791 467.468 760.281 467.468 759.714Z" fill="#F9FBF5"/>
</g>
<path d="M525.874 743.201C525.874 743.053 528.471 740.967 531.567 738.517C554.419 720.848 568.698 692.586 574.686 653.006C576.489 640.826 576.489 601.02 574.686 587.762C569.423 550.121 557.016 519.626 533.586 486.612C520.034 467.503 508.851 454.597 486.43 432.108C477.63 423.171 470.496 415.811 470.644 415.675C470.791 415.459 476.915 418.272 484.196 421.799C502.943 430.951 513.252 438.674 525.432 452.805C551.822 483.448 573.88 525.262 583.906 563.617C592.627 596.778 594.51 633.625 588.884 661.24C583.906 685.895 572.304 709.836 557.084 726.927C554.782 729.456 553.41 731.327 553.988 730.964C554.567 730.68 554.419 730.964 553.625 731.61C551.822 733.13 544.825 736.805 539.563 739.039C535.741 740.626 525.863 743.655 525.863 743.224L525.874 743.201Z" fill="#FFE8EF"/>
<path d="M292.637 649.185C290.902 647.665 289.178 644.716 289.609 644.206C289.824 644.059 290.686 644.206 291.48 644.716C293.136 645.578 293.499 644.784 292.127 643.424C291.48 642.777 291.48 642.562 292.127 642.562C292.637 642.562 292.989 641.7 292.989 640.69C292.989 637.81 294.213 639.318 295.518 643.866C296.164 646.1 296.81 648.55 297.037 649.275C297.548 650.931 294.588 650.931 292.637 649.207V649.185Z" fill="#FFE8EF"/>
<path d="M296.164 502.32C296.164 498.782 296.232 497.206 296.38 498.861C296.527 500.517 296.527 503.477 296.38 505.348C296.232 507.22 296.164 505.927 296.164 502.32Z" fill="#FFE8EF"/>
<path d="M577.861 499.224C573.892 491.217 566.032 477.087 560.634 468.433C557.606 463.534 557.538 463.319 557.969 458.703C561.213 424.022 572.894 390.646 591.572 362.736C604.977 342.697 626.831 320.559 648.458 305.124C669.949 289.7 682.198 277.441 702.532 250.835L710.108 240.957H721.426C733.969 240.957 745.503 242.25 758.057 244.994C774.57 248.669 795.255 256.676 793.237 258.626C793.089 258.842 788.258 260.577 782.497 262.596C776.804 264.546 771.462 266.485 770.668 266.848C769.874 267.211 766.347 268.72 762.741 270.16C754.598 273.551 736.283 282.635 732.529 285.153C731.009 286.23 729.217 287.103 728.639 287.103C727.267 287.103 725.327 288.26 708.452 299.499C671.254 324.234 643.128 349.603 623.372 376.356C599.432 408.655 584.87 451.706 583.067 494.96C582.851 501.231 582.42 506.494 582.125 506.641C581.91 506.789 579.959 503.466 577.872 499.213L577.861 499.224Z" fill="#FFE8EF"/>
<path d="M282.895 476.36C282.895 475.067 285.344 466.119 285.855 465.62C286.932 464.395 286.58 466.845 284.993 471.892C283.7 476.076 282.906 477.732 282.906 476.36H282.895Z" fill="#FFE8EF"/>
<path d="M442.314 394.682C429.919 381.992 421.617 366.489 415.345 344.431C413.111 336.503 411.161 326.33 410.877 321C410.73 318.834 410.594 316.6 410.594 316.101C410.526 315.591 410.231 315.307 409.947 315.523C409.437 315.806 408.212 311.054 407.203 304.783C407.135 304.42 407.055 303.921 406.987 303.705C406.409 301.97 406.261 294.837 406.772 295.415C407.135 295.846 409.153 302.48 411.24 310.192C419.746 342.128 421.912 348.842 427.605 362.1C433.378 375.505 441.373 389.42 447.429 396.78C448.949 398.584 450.173 400.239 450.173 400.534C450.173 402.122 447.792 400.319 442.314 394.694V394.682Z" fill="#FFE8EF"/>
<path d="M462.785 327.262C461.628 325.606 456.003 318.461 450.389 311.396C444.696 304.33 440.08 298.422 440.08 298.274C440.08 298.127 442.53 296.539 445.558 294.668C450.752 291.572 454.494 288.895 475.407 273.54C495.741 258.615 511.743 249.247 526.169 243.838C536.115 240.084 550.688 236.126 558.037 235.185C561.133 234.754 564.604 234.323 565.749 234.107C569.208 233.529 567.836 234.901 561.065 238.791C526.816 258.184 496.172 286.015 473.388 318.461C469.714 323.655 466.391 328.407 465.892 329.065C465.03 330.222 464.735 330.074 462.796 327.262H462.785Z" fill="#FFE8EF"/>
<path d="M571.658 227.484C552.48 210.109 521.258 197.135 496.093 196.047C492.634 195.831 488.449 195.979 486.725 196.262L483.697 196.84L486.657 194.243C490.411 190.852 499.348 185.59 510.02 180.328C554.283 158.485 602.958 153.79 632.876 168.431C644.262 173.989 648.742 179.251 648.742 186.963C648.674 193.529 642.901 202.613 637.787 204.189C625.89 207.943 602.165 217.674 586.525 225.17C580.832 227.915 575.786 230.149 575.355 230.149C574.924 230.149 573.268 228.924 571.68 227.484H571.658Z" fill="#FFE8EF"/>
<path d="M480.454 887.254C480.454 882.638 480.386 882.57 478.152 881.561C469.136 877.807 468.784 877.591 469.567 876.661C469.998 876.083 472.595 874.79 475.339 873.701C479.808 871.966 480.318 871.535 480.67 869.449C480.885 868.156 481.316 857.767 481.531 846.234C481.962 825.468 481.316 808.956 480.012 807.663C479.649 807.3 476.258 806.144 472.515 805.134C468.762 804.057 465.234 803.047 464.656 802.9C462.921 802.322 465.087 800.666 468.762 799.725C474.818 798.137 479.002 796.765 479.002 796.266C479.002 794.315 474.818 780.264 471.79 771.61C466.38 756.538 466.38 757.695 472.368 756.618C479.581 755.393 488.449 751.676 496.309 747.934C502.149 745.121 503.805 744.622 507.842 744.622C512.39 744.554 512.674 744.69 516.133 747.65C519.376 750.463 534.584 759.362 536.614 759.362C537.125 759.362 537.261 760.009 537.045 761.018C536.83 761.88 534.959 769.739 532.792 778.54C528.54 795.699 526.373 808.752 526.736 814.513L526.952 818.12L535.458 821C540.073 822.588 543.895 824.096 543.895 824.312C543.895 824.527 541.083 825.537 537.624 826.398C528.256 828.848 526.158 830.073 525.512 833.396C524.933 836.639 524.933 886.245 525.58 889.704L526.011 892.006H503.227H480.443V887.243L480.454 887.254ZM517.584 887.322C520.397 884.577 519.535 880.472 515.997 879.247C510.802 877.376 507.06 883.353 510.882 887.469C512.9 889.635 515.429 889.556 517.584 887.322ZM499.133 818.04C503.533 812.483 496.105 806.212 491.489 811.553C489.47 813.935 489.402 815.591 491.341 818.04C492.419 819.412 493.507 819.911 495.231 819.911C496.966 819.911 498.044 819.401 499.121 818.04H499.133Z" fill="#FAFCF6"/>
<path d="M335.029 711.912C321.976 702.612 304.817 689.06 286.15 673.557C263.797 654.878 258.682 650.841 249.167 644.433C230.137 631.595 212.184 625.256 182.471 620.855C173.387 619.563 171.3 619.052 172.015 618.326C173.455 616.954 199.267 616.24 208.283 617.317C232.224 620.13 257.242 627.841 281.829 639.886C294.803 646.225 296.754 647.813 298.409 652.723C299.929 657.407 307.278 672.264 311.247 678.535C318.46 690.069 326.819 700.163 338.352 711.56C341.743 714.804 344.34 717.684 344.125 717.832C343.977 718.047 339.872 715.382 335.041 711.923L335.029 711.912Z" fill="#FAFCF6"/>
<path d="M821.339 676.153C818.027 675.291 815.351 673.703 816.008 673.057C816.519 672.547 825.092 675.938 825.092 676.595C825.092 676.958 825.024 677.174 824.945 677.106C824.798 677.106 823.21 676.675 821.339 676.164V676.153Z" fill="#FAFCF6"/>
</g>
<defs>
<filter id="filter0_i_45_195" x="510.733" y="656.953" width="329.381" height="107.444" filterUnits="userSpaceOnUse" color-interpolation-filters="sRGB">
<feFlood flood-opacity="0" result="BackgroundImageFix"/>
<feBlend mode="normal" in="SourceGraphic" in2="BackgroundImageFix" result="shape"/>
<feColorMatrix in="SourceAlpha" type="matrix" values="0 0 0 0 0 0 0 0 0 0 0 0 0 0 0 0 0 0 127 0" result="hardAlpha"/>
<feOffset dx="-1" dy="7"/>
<feComposite in2="hardAlpha" operator="arithmetic" k2="-1" k3="1"/>
<feColorMatrix type="matrix" values="0 0 0 0 1 0 0 0 0 0.909804 0 0 0 0 0.937255 0 0 0 1 0"/>
<feBlend mode="normal" in2="shape" result="effect1_innerShadow_45_195"/>
</filter>
<filter id="filter1_i_45_195" x="289.467" y="474.033" width="215.483" height="286.758" filterUnits="userSpaceOnUse" color-interpolation-filters="sRGB">
<feFlood flood-opacity="0" result="BackgroundImageFix"/>
<feBlend mode="normal" in="SourceGraphic" in2="BackgroundImageFix" result="shape"/>
<feColorMatrix in="SourceAlpha" type="matrix" values="0 0 0 0 0 0 0 0 0 0 0 0 0 0 0 0 0 0 127 0" result="hardAlpha"/>
<feOffset dx="-1" dy="7"/>
<feComposite in2="hardAlpha" operator="arithmetic" k2="-1" k3="1"/>
<feColorMatrix type="matrix" values="0 0 0 0 1 0 0 0 0 0.909804 0 0 0 0 0.937255 0 0 0 1 0"/>
<feBlend mode="normal" in2="shape" result="effect1_innerShadow_45_195"/>
</filter>
</defs>
</svg>
